<?xml version="1.0" standalone="no"?>
<!DOCTYPE svg PUBLIC "-//W3C//DTD SVG 1.1//EN"
"http://www.w3.org/Graphics/SVG/1.1/DTD/svg11.dtd">

<svg width="278" height="213" view_box="0 0 278 213"
xmlns="http://www.w3.org/2000/svg"
xmlns:link="http://www.w3.org/1999/xlink">\n\n<desc>Généré par Mocodo 2.3.7 le Wed, 03 Mar 2021 10:57:17</desc>

<rect id="frame" x="0" y="0" width="278" height="213" fill="#f7f7f7" stroke="none" stroke-width="0"/>

<!-- Association IS -->
<line x1="139" y1="60" x2="48" y2="60" stroke="#7fbc41" stroke-width="2"/>
<text x="74" y="77.0" fill="#c51b7d" font-family="Verdana" font-size="12">1,1</text>
<line x1="48" y1="170" x2="48" y2="60" stroke="#7fbc41" stroke-width="2"/>
<text x="53.0" y="128" fill="#c51b7d" font-family="Verdana" font-size="12">0,N</text>
<g id="association-IS">
	<path d="M 48 35 a 14 14 90 0 1 14 14 V 60 h -28 V 49 a 14 14 90 0 1 14 -14" fill="#b8e186" stroke="#b8e186" stroke-width="0"/>
	<path d="M 62 60.0 v 11 a 14 14 90 0 1 -14 14 H 48 a 14 14 90 0 1 -14 -14 V 60.0 H 28" fill="#e6f5d0" stroke="#e6f5d0" stroke-width="0"/>
	<rect x="34" y="35" width="28" height="50" fill="none" rx="14" stroke="#7fbc41" stroke-width="2"/>
	<line x1="34" y1="60" x2="62" y2="60" stroke="#7fbc41" stroke-width="1"/>
	<text x="41" y="52.7" fill="#000000" font-family="Verdana" font-size="12">IS</text>
</g>

<!-- Association HAS -->
<line x1="139" y1="60" x2="139" y2="170" stroke="#7fbc41" stroke-width="2"/>
<text x="144.0" y="128" fill="#c51b7d" font-family="Verdana" font-size="12">1,1</text>
<line x1="230" y1="170" x2="139" y2="170" stroke="#7fbc41" stroke-width="2"/>
<text x="164" y="187.0" fill="#c51b7d" font-family="Verdana" font-size="12">0,N</text>
<g id="association-HAS">
	<path d="M 145 145 a 14 14 90 0 1 14 14 V 170 h -40 V 159 a 14 14 90 0 1 14 -14" fill="#b8e186" stroke="#b8e186" stroke-width="0"/>
	<path d="M 159 170.0 v 11 a 14 14 90 0 1 -14 14 H 133 a 14 14 90 0 1 -14 -14 V 170.0 H 40" fill="#e6f5d0" stroke="#e6f5d0" stroke-width="0"/>
	<rect x="119" y="145" width="40" height="50" fill="none" rx="14" stroke="#7fbc41" stroke-width="2"/>
	<line x1="119" y1="170" x2="159" y2="170" stroke="#7fbc41" stroke-width="1"/>
	<text x="126" y="162.7" fill="#000000" font-family="Verdana" font-size="12">HAS</text>
</g>

<!-- Entity CATEGORY -->
<g id="entity-CATEGORY">
	<g id="frame-CATEGORY">
		<rect x="191" y="136" width="78" height="25" fill="#f1b6da" stroke="#f1b6da" stroke-width="0"/>
		<rect x="191" y="161.0" width="78" height="43" fill="#fde0ef" stroke="#fde0ef" stroke-width="0"/>
		<rect x="191" y="136" width="78" height="68" fill="none" stroke="#de77ae" stroke-width="2"/>
		<line x1="191" y1="161" x2="269" y2="161" stroke="#de77ae" stroke-width="1"/>
	</g>
	<text x="196" y="153.7" fill="#000000" font-family="Verdana" font-size="12">CATEGORY</text>
	<text x="196" y="178.8" fill="#000000" font-family="Verdana" font-size="12">id</text>
	<line x1="196" y1="181" x2="208" y2="181" stroke="#000000" stroke-width="1"/>
	<text x="196" y="195.8" fill="#000000" font-family="Verdana" font-size="12">name</text>
</g>

<!-- Entity PROGRESS -->
<g id="entity-PROGRESS">
	<g id="frame-PROGRESS">
		<rect x="9" y="136" width="78" height="25" fill="#f1b6da" stroke="#f1b6da" stroke-width="0"/>
		<rect x="9" y="161.0" width="78" height="43" fill="#fde0ef" stroke="#fde0ef" stroke-width="0"/>
		<rect x="9" y="136" width="78" height="68" fill="none" stroke="#de77ae" stroke-width="2"/>
		<line x1="9" y1="161" x2="87" y2="161" stroke="#de77ae" stroke-width="1"/>
	</g>
	<text x="14" y="153.7" fill="#000000" font-family="Verdana" font-size="12">PROGRESS</text>
	<text x="14" y="178.8" fill="#000000" font-family="Verdana" font-size="12">id</text>
	<line x1="14" y1="181" x2="26" y2="181" stroke="#000000" stroke-width="1"/>
	<text x="14" y="195.8" fill="#000000" font-family="Verdana" font-size="12">name</text>
</g>

<!-- Entity TASK -->
<g id="entity-TASK">
	<g id="frame-TASK">
		<rect x="100" y="9" width="78" height="25" fill="#f1b6da" stroke="#f1b6da" stroke-width="0"/>
		<rect x="100" y="34.0" width="78" height="77" fill="#fde0ef" stroke="#fde0ef" stroke-width="0"/>
		<rect x="100" y="9" width="78" height="102" fill="none" stroke="#de77ae" stroke-width="2"/>
		<line x1="100" y1="34" x2="178" y2="34" stroke="#de77ae" stroke-width="1"/>
	</g>
	<text x="122" y="26.7" fill="#000000" font-family="Verdana" font-size="12">TASK</text>
	<text x="105" y="51.7" fill="#000000" font-family="Verdana" font-size="12">id</text>
	<line x1="105" y1="54" x2="117" y2="54" stroke="#000000" stroke-width="1"/>
	<text x="105" y="68.8" fill="#000000" font-family="Verdana" font-size="12">name</text>
	<text x="105" y="85.8" fill="#000000" font-family="Verdana" font-size="12">completion</text>
	<text x="105" y="102.8" fill="#000000" font-family="Verdana" font-size="12">status</text>
</g>
</svg>